HIERARCHY
ROOT Hips
{
	OFFSET 0.000000 0.000000 0.000000
	CHANNELS 6 Xposition Yposition Zposition Zrotation Yrotation Xrotation 
	JOINT Spine1
	{
		OFFSET -0.013727 5.003762 -0.053727
		CHANNELS 3 Zrotation Yrotation Xrotation
		JOINT Spine2
		{
			OFFSET -0.000000 7.125301 -0.029825
			CHANNELS 3 Zrotation Yrotation Xrotation
			JOINT Chest
			{
				OFFSET -0.000001 7.550064 -0.815971
				CHANNELS 3 Zrotation Yrotation Xrotation
				JOINT Neck1
				{
					OFFSET -0.181677 26.311296 -0.553348
					CHANNELS 3 Zrotation Yrotation Xrotation
					JOINT Neck2
					{
						OFFSET -0.000003 7.709399 2.302585
						CHANNELS 3 Zrotation Yrotation Xrotation
						JOINT Head
						{
							OFFSET -0.000005 6.128914 1.953709
							CHANNELS 3 Zrotation Yrotation Xrotation
							JOINT HeadEnd
							{
								OFFSET 0.003598 16.065399 -1.835379
								CHANNELS 3 Zrotation Yrotation Xrotation
								End Site
								{
									OFFSET 0.000000 0.000000 0.000000
								}
							}
							JOINT Jaw
							{
								OFFSET 0.002637 0.475592 3.094940
								CHANNELS 3 Zrotation Yrotation Xrotation
								End Site
								{
									OFFSET 0.000000 0.000000 0.000000
								}
							}
							JOINT LeftEye
							{
								OFFSET 3.206380 5.380207 7.586883
								CHANNELS 3 Zrotation Yrotation Xrotation
								End Site
								{
									OFFSET 0.000000 0.000000 0.000000
								}
							}
							JOINT RightEye
							{
								OFFSET -3.222440 5.361868 7.558233
								CHANNELS 3 Zrotation Yrotation Xrotation
								End Site
								{
									OFFSET 0.000000 0.000000 0.000000
								}
							}
						}
					}
				}
				JOINT LeftShoulder
				{
					OFFSET 1.621652 23.237165 5.113413
					CHANNELS 3 Zrotation Yrotation Xrotation
					JOINT LeftArm
					{
						OFFSET 14.919845 -0.000000 -5.502326
						CHANNELS 3 Zrotation Yrotation Xrotation
						JOINT LeftForeArm
						{
							OFFSET 28.739309 0.000002 -0.002588
							CHANNELS 3 Zrotation Yrotation Xrotation
							JOINT LeftHand
							{
								OFFSET 27.093979 -0.000002 0.002609
								CHANNELS 3 Zrotation Yrotation Xrotation
								JOINT LeftHandThumb1
								{
									OFFSET 2.276479 -1.392046 3.191413
									CHANNELS 3 Zrotation Yrotation Xrotation
									JOINT LeftHandThumb2
									{
										OFFSET 4.012842 -1.828126 1.641656
										CHANNELS 3 Zrotation Yrotation Xrotation
										JOINT LeftHandThumb3
										{
											OFFSET 2.798516 0.000001 -0.000003
											CHANNELS 3 Zrotation Yrotation Xrotation
											JOINT LeftHandThumbEnd
											{
												OFFSET 3.180791 -0.000002 0.000003
												CHANNELS 3 Zrotation Yrotation Xrotation
												End Site
												{
													OFFSET 0.000000 0.000000 0.000000
												}
											}
										}
									}
								}
								JOINT LeftHandIndex1
								{
									OFFSET 3.247554 -0.531998 2.296169
									CHANNELS 3 Zrotation Yrotation Xrotation
									JOINT LeftHandIndex2
									{
										OFFSET 6.364579 0.012062 0.178600
										CHANNELS 3 Zrotation Yrotation Xrotation
										JOINT LeftHandIndex3
										{
											OFFSET 3.662365 -0.000000 -0.000000
											CHANNELS 3 Zrotation Yrotation Xrotation
											JOINT LeftHandIndex4
											{
												OFFSET 2.329243 0.000003 0.000004
												CHANNELS 3 Zrotation Yrotation Xrotation
												JOINT LeftHandIndexEnd
												{
													OFFSET 2.759619 -0.180538 -0.113024
													CHANNELS 3 Zrotation Yrotation Xrotation
													End Site
													{
														OFFSET 0.000000 0.000000 0.000000
													}
												}
											}
										}
									}
								}
								JOINT LeftHandMiddle1
								{
									OFFSET 3.163500 0.240982 1.000332
									CHANNELS 3 Zrotation Yrotation Xrotation
									JOINT LeftHandMiddle2
									{
										OFFSET 6.190777 -0.259277 -1.002549
										CHANNELS 3 Zrotation Yrotation Xrotation
										JOINT LeftHandMiddle3
										{
											OFFSET 4.356522 -0.000006 0.000000
											CHANNELS 3 Zrotation Yrotation Xrotation
											JOINT LeftHandMiddle4
											{
												OFFSET 2.996875 -0.000006 0.000001
												CHANNELS 3 Zrotation Yrotation Xrotation
												JOINT LeftHandMiddleEnd
												{
													OFFSET 2.304294 -0.294571 -0.031739
													CHANNELS 3 Zrotation Yrotation Xrotation
													End Site
													{
														OFFSET 0.000000 0.000000 0.000000
													}
												}
											}
										}
									}
								}
								JOINT LeftHandRing1
								{
									OFFSET 2.882642 -0.053650 -0.322543
									CHANNELS 3 Zrotation Yrotation Xrotation
									JOINT LeftHandRing2
									{
										OFFSET 5.854542 -0.486204 -1.373841
										CHANNELS 3 Zrotation Yrotation Xrotation
										JOINT LeftHandRing3
										{
											OFFSET 4.350581 0.000000 0.000004
											CHANNELS 3 Zrotation Yrotation Xrotation
											JOINT LeftHandRing4
											{
												OFFSET 2.651324 0.000009 0.000004
												CHANNELS 3 Zrotation Yrotation Xrotation
												JOINT LeftHandRingEnd
												{
													OFFSET 1.936110 0.077685 -0.000070
													CHANNELS 3 Zrotation Yrotation Xrotation
													End Site
													{
														OFFSET 0.000000 0.000000 0.000000
													}
												}
											}
										}
									}
								}
								JOINT LeftHandPinky1
								{
									OFFSET 2.865500 -0.310004 -1.600378
									CHANNELS 3 Zrotation Yrotation Xrotation
									JOINT LeftHandPinky2
									{
										OFFSET 5.087853 -1.331142 -1.771231
										CHANNELS 3 Zrotation Yrotation Xrotation
										JOINT LeftHandPinky3
										{
											OFFSET 3.070975 0.000003 0.000000
											CHANNELS 3 Zrotation Yrotation Xrotation
											JOINT LeftHandPinky4
											{
												OFFSET 1.549668 0.000000 0.000000
												CHANNELS 3 Zrotation Yrotation Xrotation
												JOINT LeftHandPinkyEnd
												{
													OFFSET 1.944894 -0.157802 0.057219
													CHANNELS 3 Zrotation Yrotation Xrotation
													End Site
													{
														OFFSET 0.000000 0.000000 0.000000
													}
												}
											}
										}
									}
								}
							}
						}
					}
				}
				JOINT RightShoulder
				{
					OFFSET -1.380118 23.180307 5.214157
					CHANNELS 3 Zrotation Yrotation Xrotation
					JOINT RightArm
					{
						OFFSET -15.037197 0.000011 -5.545604
						CHANNELS 3 Zrotation Yrotation Xrotation
						JOINT RightForeArm
						{
							OFFSET -28.736639 0.000003 -0.002597
							CHANNELS 3 Zrotation Yrotation Xrotation
							JOINT RightHand
							{
								OFFSET -27.133617 -0.000001 0.002612
								CHANNELS 3 Zrotation Yrotation Xrotation
								JOINT RightHandThumb1
								{
									OFFSET -2.274037 -1.383990 3.163127
									CHANNELS 3 Zrotation Yrotation Xrotation
									JOINT RightHandThumb2
									{
										OFFSET -4.011428 -1.827468 1.640914
										CHANNELS 3 Zrotation Yrotation Xrotation
										JOINT RightHandThumb3
										{
											OFFSET -2.794935 -0.000003 -0.000003
											CHANNELS 3 Zrotation Yrotation Xrotation
											JOINT RightHandThumbEnd
											{
												OFFSET -3.183855 0.000003 0.000000
												CHANNELS 3 Zrotation Yrotation Xrotation
												End Site
												{
													OFFSET 0.000000 0.000000 0.000000
												}
											}
										}
									}
								}
								JOINT RightHandIndex1
								{
									OFFSET -3.253270 -0.520059 2.282866
									CHANNELS 3 Zrotation Yrotation Xrotation
									JOINT RightHandIndex2
									{
										OFFSET -6.341918 0.012472 0.178265
										CHANNELS 3 Zrotation Yrotation Xrotation
										JOINT RightHandIndex3
										{
											OFFSET -3.654875 -0.000008 -0.000001
											CHANNELS 3 Zrotation Yrotation Xrotation
											JOINT RightHandIndex4
											{
												OFFSET -2.327586 -0.000001 0.000001
												CHANNELS 3 Zrotation Yrotation Xrotation
												JOINT RightHandIndexEnd
												{
													OFFSET -2.761789 -0.180657 -0.113078
													CHANNELS 3 Zrotation Yrotation Xrotation
													End Site
													{
														OFFSET 0.000000 0.000000 0.000000
													}
												}
											}
										}
									}
								}
								JOINT RightHandMiddle1
								{
									OFFSET -3.168106 0.246594 1.001030
									CHANNELS 3 Zrotation Yrotation Xrotation
									JOINT RightHandMiddle2
									{
										OFFSET -6.180830 -0.258836 -1.000896
										CHANNELS 3 Zrotation Yrotation Xrotation
										JOINT RightHandMiddle3
										{
											OFFSET -4.348905 -0.000001 -0.000001
											CHANNELS 3 Zrotation Yrotation Xrotation
											JOINT RightHandMiddle4
											{
												OFFSET -3.000243 -0.000004 -0.000002
												CHANNELS 3 Zrotation Yrotation Xrotation
												JOINT RightHandMiddleEnd
												{
													OFFSET -2.302518 -0.294370 -0.031706
													CHANNELS 3 Zrotation Yrotation Xrotation
													End Site
													{
														OFFSET 0.000000 0.000000 0.000000
													}
												}
											}
										}
									}
								}
								JOINT RightHandRing1
								{
									OFFSET -2.885693 -0.067953 -0.308858
									CHANNELS 3 Zrotation Yrotation Xrotation
									JOINT RightHandRing2
									{
										OFFSET -5.854198 -0.486132 -1.373732
										CHANNELS 3 Zrotation Yrotation Xrotation
										JOINT RightHandRing3
										{
											OFFSET -4.338814 -0.000004 -0.000000
											CHANNELS 3 Zrotation Yrotation Xrotation
											JOINT RightHandRing4
											{
												OFFSET -2.654906 -0.000003 0.000004
												CHANNELS 3 Zrotation Yrotation Xrotation
												JOINT RightHandRingEnd
												{
													OFFSET -1.933570 0.077525 -0.000053
													CHANNELS 3 Zrotation Yrotation Xrotation
													End Site
													{
														OFFSET 0.000000 0.000000 0.000000
													}
												}
											}
										}
									}
								}
								JOINT RightHandPinky1
								{
									OFFSET -2.866430 -0.342798 -1.584145
									CHANNELS 3 Zrotation Yrotation Xrotation
									JOINT RightHandPinky2
									{
										OFFSET -5.091369 -1.332055 -1.772385
										CHANNELS 3 Zrotation Yrotation Xrotation
										JOINT RightHandPinky3
										{
											OFFSET -3.062666 -0.000007 0.000000
											CHANNELS 3 Zrotation Yrotation Xrotation
											JOINT RightHandPinky4
											{
												OFFSET -1.546527 0.000005 -0.000002
												CHANNELS 3 Zrotation Yrotation Xrotation
												JOINT RightHandPinkyEnd
												{
													OFFSET -1.945122 -0.157721 0.057211
													CHANNELS 3 Zrotation Yrotation Xrotation
													End Site
													{
														OFFSET 0.000000 0.000000 0.000000
													}
												}
											}
										}
									}
								}
							}
						}
					}
				}
			}
		}
	}
	JOINT LeftLeg
	{
		OFFSET 10.043214 -8.434526 2.595655
		CHANNELS 3 Zrotation Yrotation Xrotation
		JOINT LeftShin
		{
			OFFSET -0.000001 -43.221752 -0.802913
			CHANNELS 3 Zrotation Yrotation Xrotation
			JOINT LeftFoot
			{
				OFFSET 0.000001 -42.155094 -3.481523
				CHANNELS 3 Zrotation Yrotation Xrotation
				JOINT LeftToeBase
				{
					OFFSET -0.000000 -5.059475 13.231529
					CHANNELS 3 Zrotation Yrotation Xrotation
					JOINT LeftToeEnd
					{
						OFFSET -0.009607 -1.647615 6.513017
						CHANNELS 3 Zrotation Yrotation Xrotation
						End Site
						{
							OFFSET 0.000000 0.000000 0.000000
						}
					}
				}
			}
		}
	}
	JOINT RightLeg
	{
		OFFSET -10.047277 -8.295259 2.620317
		CHANNELS 3 Zrotation Yrotation Xrotation
		JOINT RightShin
		{
			OFFSET 0.000000 -43.362209 -0.805556
			CHANNELS 3 Zrotation Yrotation Xrotation
			JOINT RightFoot
			{
				OFFSET 0.000002 -42.117393 -3.478399
				CHANNELS 3 Zrotation Yrotation Xrotation
				JOINT RightToeBase
				{
					OFFSET -0.000001 -5.079609 13.284196
					CHANNELS 3 Zrotation Yrotation Xrotation
					JOINT RightToeEnd
					{
						OFFSET 0.009532 -1.634383 6.460591
						CHANNELS 3 Zrotation Yrotation Xrotation
						End Site
						{
							OFFSET 0.000000 0.000000 0.000000
						}
					}
				}
			}
		}
	}
}
MOTION
Frames: 4
Frame Time: 0.033333
4.862471 94.868759 2.895604 0.351727 0.370933 0.489631 -1.223613 0.087343 2.224529 -0.779164 -0.336195 -3.917969 -1.423640 -2.415168 10.836334 -5.381098 6.380902 12.654579 1.990287 9.863795 -3.261038 -3.648756 11.821355 -9.075632 0.000077 -0.000023 0.000006 0.026864 -0.142676 -0.053110 0.796134 -3.855707 -10.663967 -0.749844 3.570320 -10.609833 8.143559 -14.910386 7.344523 -22.194414 -28.819983 -60.101631 -178.614334 -59.537937 179.126572 13.213636 -5.147131 -0.625175 -5.882101 9.861278 0.702589 -10.936858 -0.360576 7.156197 0.000000 8.774813 -0.000001 -16.969383 17.617926 5.659415 -1.844030 2.498503 -2.507276 -10.163589 4.678938 4.621101 -20.975998 -0.000005 0.000003 -21.226259 2.451690 -3.593993 -0.000000 -0.000007 -0.000000 -1.362681 2.240797 -0.746321 -21.334892 0.584907 3.008318 -13.821197 -0.000003 0.000003 -23.887135 -0.249079 -0.839481 -60.583645 2.558776 -1.526813 -0.294024 1.679686 0.833256 -14.218195 0.093213 1.300578 -34.212006 -0.287565 0.967169 -20.033180 0.964534 1.212841 0.000000 0.000000 0.000000 -3.440386 0.788232 0.501655 -15.928171 -3.167306 2.999704 -6.338818 -0.000002 0.000002 -18.123411 3.648172 -4.905661 -0.000004 -0.000000 -0.000002 -12.854113 9.693734 6.211452 67.040245 60.766907 4.774811 179.739761 40.897953 179.997147 -11.873756 3.888996 1.266460 2.243539 -5.255032 -3.180155 14.282877 -0.826593 6.952496 -0.000003 -12.690588 -0.000000 15.849965 -18.197376 2.670979 1.665666 -1.955919 -2.878298 4.727791 -4.170582 4.993917 11.020508 0.000004 -0.000000 12.109030 -3.735709 -2.866778 -0.000000 0.000000 0.000000 1.291984 -1.928547 -1.498088 14.800113 0.567469 3.865602 14.242553 -1.341733 -6.660648 19.631935 0.143926 -0.648243 49.595367 -0.786531 -6.166138 0.353028 -1.511150 -0.031941 20.222769 3.684307 2.316629 18.787243 0.000005 0.000001 10.751610 -0.479866 1.397905 0.000000 0.000000 0.000000 3.273804 0.305947 -0.580110 21.486794 11.830361 2.266131 8.162915 0.000002 -0.000000 18.399050 -3.798979 -4.940566 0.000003 0.000000 -0.000001 11.288230 8.936501 -25.714743 -0.170485 -0.675386 25.467051 -13.777193 0.996111 1.328432 1.632480 -1.909380 0.529671 0.000000 -0.000000 0.000002 -13.325195 -9.944906 -10.985615 0.280852 0.629955 31.656149 13.267968 5.767570 -17.332453 -1.430018 0.957117 -0.356492 0.000000 -0.000000 -0.000001 
4.806055 94.868271 3.023154 0.381217 0.481174 0.425836 -1.304184 0.110275 2.206640 -0.742930 -0.316287 -3.903593 -1.482186 -2.381737 10.847916 -5.453003 6.330994 12.563120 2.047059 10.001174 -3.248836 -3.649583 12.018832 -8.864576 0.000077 -0.000024 0.000006 0.034672 -0.148635 -0.048284 0.803140 -3.884291 -10.681932 -0.742365 3.566148 -10.635718 8.076832 -14.864666 7.278547 -21.822454 -28.449600 -59.948902 -178.662186 -59.769173 178.897980 13.464847 -5.511360 -0.918336 -5.882099 9.861279 0.702589 -10.936858 -0.360575 7.156197 0.000000 8.774813 -0.000003 -16.895624 17.571026 5.740079 -1.844030 2.498503 -2.507276 -10.163591 4.678939 4.621103 -20.975994 -0.000004 0.000004 -21.226255 2.451693 -3.593992 -0.000000 -0.000006 0.000000 -1.362679 2.240797 -0.746321 -21.334887 0.584908 3.008320 -13.821197 -0.000001 0.000003 -23.887133 -0.249079 -0.839480 -60.513016 2.463960 -1.349054 -0.294024 1.679686 0.833255 -14.218192 0.093214 1.300580 -34.212002 -0.287565 0.967172 -20.033180 0.964536 1.212842 -0.000000 -0.000001 0.000000 -3.440386 0.788232 0.501653 -15.928164 -3.167307 2.999701 -6.338818 -0.000001 0.000002 -18.123417 3.648175 -4.905663 -0.000003 -0.000000 -0.000002 -13.152570 9.677820 6.166437 67.217087 60.658443 4.694623 179.858002 40.824680 -179.883179 -11.507046 3.826941 0.774165 2.243539 -5.255033 -3.180155 14.282873 -0.826593 6.952495 -0.000002 -12.690587 0.000001 15.811664 -18.154362 2.734812 1.665665 -1.955920 -2.878298 4.727793 -4.170583 4.993918 11.020510 0.000003 -0.000001 12.109032 -3.735708 -2.866779 0.000001 0.000000 0.000000 1.291984 -1.928548 -1.498087 14.800113 0.567467 3.865602 14.242556 -1.341734 -6.660651 19.631939 0.143926 -0.648245 49.533875 -0.816955 -6.171212 0.353029 -1.511149 -0.031939 20.222767 3.684306 2.316626 18.787245 0.000005 -0.000002 10.751610 -0.479868 1.397902 -0.000000 -0.000001 -0.000000 3.273804 0.305948 -0.580110 21.486788 11.830360 2.266129 8.162916 0.000002 -0.000001 18.399048 -3.798977 -4.940568 0.000003 -0.000001 -0.000001 11.388874 8.441621 -25.581194 -0.180401 -0.652730 25.474308 -13.765308 1.273790 1.166830 1.629451 -1.917894 0.480998 -0.000000 0.000000 0.000002 -13.361971 -10.109718 -10.843863 0.268234 0.641663 31.782597 13.291318 5.893644 -17.258121 -1.433664 0.931782 -0.472199 0.000000 0.000000 -0.000001 
4.774734 94.781227 3.213889 0.433007 0.654661 0.330322 -1.386028 0.147602 2.198470 -0.745046 -0.308264 -3.922680 -1.570258 -2.313358 10.860376 -5.447614 6.314564 12.579286 2.062406 10.160376 -3.260295 -3.580711 12.054306 -8.612608 0.000077 -0.000023 0.000006 0.045034 -0.179102 -0.045666 0.806000 -3.906547 -10.714494 -0.725783 3.539408 -10.670598 8.022884 -14.846970 7.209454 -21.441738 -28.178003 -59.701622 -178.638184 -59.987221 178.730850 13.639034 -5.831575 -1.098889 -5.882100 9.861278 0.702591 -10.936860 -0.360576 7.156198 0.000002 8.774814 -0.000001 -16.746367 17.535728 5.820315 -1.844031 2.498502 -2.507276 -10.163591 4.678939 4.621105 -20.975996 -0.000003 0.000005 -21.226255 2.451694 -3.593990 0.000000 -0.000005 -0.000000 -1.362681 2.240796 -0.746323 -21.334890 0.584906 3.008322 -13.821197 -0.000001 0.000004 -23.887135 -0.249078 -0.839478 -60.401081 2.448338 -1.277185 -0.294025 1.679686 0.833255 -14.218195 0.093213 1.300581 -34.211998 -0.287563 0.967174 -20.033178 0.964534 1.212844 0.000000 0.000000 0.000000 -3.440385 0.788233 0.501655 -15.928171 -3.167307 2.999703 -6.338817 0.000001 0.000002 -18.123415 3.648177 -4.905662 -0.000003 0.000001 -0.000002 -13.290376 9.701777 6.171998 67.378708 60.365318 4.731689 179.909683 40.947136 -179.807678 -11.313288 3.755450 0.385310 2.243539 -5.255032 -3.180155 14.282875 -0.826593 6.952496 -0.000002 -12.690587 0.000000 15.739342 -18.090847 2.812530 1.665665 -1.955920 -2.878296 4.727796 -4.170582 4.993917 11.020513 0.000003 -0.000001 12.109032 -3.735708 -2.866778 0.000002 -0.000000 0.000001 1.291983 -1.928547 -1.498087 14.800111 0.567467 3.865605 14.242553 -1.341735 -6.660649 19.631941 0.143925 -0.648244 49.405933 -0.850943 -6.165699 0.353029 -1.511150 -0.031941 20.222773 3.684305 2.316628 18.787245 0.000005 -0.000000 10.751611 -0.479866 1.397904 -0.000000 -0.000001 -0.000000 3.273804 0.305947 -0.580111 21.486790 11.830360 2.266131 8.162915 0.000002 0.000000 18.399054 -3.798979 -4.940566 0.000003 -0.000001 -0.000001 11.423122 8.059064 -25.652092 -0.161481 -0.605471 25.978111 -13.795542 1.375183 0.779744 1.625476 -1.926050 0.502015 -0.000000 0.000000 0.000002 -13.479760 -10.349638 -10.687652 0.254818 0.631590 32.102951 13.250386 6.161097 -17.514351 -1.434042 0.917387 -0.499692 0.000000 0.000000 -0.000001 
4.627044 94.603088 3.387441 0.462047 0.865548 0.260523 -1.441341 0.176692 2.169066 -0.776280 -0.271055 -3.936654 -1.655619 -2.273125 10.857412 -5.462921 6.340075 12.581964 2.073260 10.261223 -3.281339 -3.459477 12.047415 -8.349574 0.000077 -0.000021 0.000007 0.046420 -0.185164 -0.049428 0.798863 -3.927061 -10.729662 -0.717931 3.547080 -10.687342 7.960076 -14.785711 7.155540 -21.180490 -28.071547 -59.274467 -178.632034 -60.066410 178.622818 13.818434 -6.103794 -1.236685 -5.882100 9.861277 0.702591 -10.936857 -0.360574 7.156199 0.000002 8.774813 -0.000002 -16.558323 17.557745 5.892751 -1.844030 2.498503 -2.507275 -10.163588 4.678939 4.621106 -20.975994 -0.000003 0.000006 -21.226254 2.451694 -3.593991 0.000000 -0.000005 -0.000000 -1.362679 2.240796 -0.746323 -21.334892 0.584907 3.008321 -13.821197 -0.000003 0.000004 -23.887133 -0.249079 -0.839478 -60.282387 2.473688 -1.266010 -0.294025 1.679686 0.833255 -14.218192 0.093214 1.300581 -34.211998 -0.287564 0.967172 -20.033178 0.964535 1.212843 0.000000 0.000000 0.000000 -3.440385 0.788232 0.501654 -15.928165 -3.167308 2.999703 -6.338817 -0.000001 0.000004 -18.123411 3.648177 -4.905656 -0.000003 -0.000000 -0.000002 -13.269595 9.711210 6.189334 67.741173 59.866695 5.054328 179.726288 41.135410 -179.905228 -11.245358 3.650540 -0.058229 2.243541 -5.255033 -3.180155 14.282877 -0.826595 6.952495 -0.000003 -12.690591 -0.000001 15.659458 -18.049364 2.877695 1.665666 -1.955920 -2.878296 4.727792 -4.170582 4.993917 11.020513 0.000002 -0.000002 12.109035 -3.735711 -2.866780 0.000001 0.000000 0.000000 1.291985 -1.928548 -1.498087 14.800113 0.567468 3.865602 14.242554 -1.341734 -6.660649 19.631939 0.143926 -0.648246 49.364994 -0.852206 -6.130810 0.353030 -1.511150 -0.031940 20.222771 3.684306 2.316627 18.787245 0.000005 -0.000001 10.751610 -0.479867 1.397904 -0.000000 -0.000001 0.000000 3.273804 0.305947 -0.580110 21.486792 11.830362 2.266129 8.162915 0.000002 -0.000001 18.399054 -3.798978 -4.940569 0.000003 -0.000001 -0.000001 11.539525 7.792614 -25.937038 -0.157014 -0.582896 26.783321 -13.909495 1.345810 0.311408 1.623821 -1.926041 0.554366 0.000000 -0.000000 0.000002 -13.496145 -10.669753 -10.663322 0.249481 0.640395 32.647171 13.187787 6.371751 -18.168463 -1.432016 0.919227 -0.427272 -0.000000 -0.000000 -0.000001 
